<svg width="24" height="24" viewBox="0 0 24 24" fill="none" xmlns="http://www.w3.org/2000/svg">
<path d="M3.14286 4.85714V4.35714C2.90452 4.35714 2.69931 4.52537 2.65257 4.75908L3.14286 4.85714ZM20.2857 4.85714L20.776 4.75908C20.7293 4.52537 20.5241 4.35714 20.2857 4.35714V4.85714ZM21.7143 12V12.5C21.8641 12.5 22.006 12.4328 22.101 12.317C22.1959 12.2012 22.234 12.0488 22.2046 11.9019L21.7143 12ZM1.71429 12L1.224 11.9019C1.19462 12.0488 1.23265 12.2012 1.32761 12.317C1.42258 12.4328 1.56449 12.5 1.71429 12.5V12ZM6 16.2857H5.5V16.7857H6V16.2857ZM17.4286 16.2857V16.7857H17.9286V16.2857H17.4286ZM1 22.5H22.4286V21.5H1V22.5ZM2.64286 12V22H3.64286V12H2.64286ZM19.7857 12V22H20.7857V12H19.7857ZM3.14286 5.35714H20.2857V4.35714H3.14286V5.35714ZM19.7954 4.9552L21.224 12.0981L22.2046 11.9019L20.776 4.75908L19.7954 4.9552ZM21.7143 11.5H1.71429V12.5H21.7143V11.5ZM2.20458 12.0981L3.63315 4.9552L2.65257 4.75908L1.224 11.9019L2.20458 12.0981ZM2.42857 2.5H21V1.5H2.42857V2.5ZM5.5 12V16.2857H6.5V12H5.5ZM6 16.7857H17.4286V15.7857H6V16.7857ZM17.9286 16.2857V12H16.9286V16.2857H17.9286Z" fill="#B0B0B0"/>
</svg>
