<svg width="24" height="24" viewBox="0 0 24 24" fill="none" xmlns="http://www.w3.org/2000/svg">
<path d="M20 20.5H20.0006C20.4174 20.5005 20.7611 20.3583 21.0591 20.0597C21.3576 19.7607 21.5 19.4165 21.5 19V15.5H15.5L15.5 15.9988C15.5 15.999 15.5 15.9991 15.5 15.9992V16H15C15.0007 16.2827 14.905 16.52 14.713 16.712C14.521 16.904 14.2833 17 14 17H10C9.71733 17.0007 9.48 16.905 9.288 16.713C9.096 16.521 9 16.2833 9 16L20 20.5ZM20 20.5H4C3.58354 20.5 3.23978 20.3577 2.94155 20.0594C2.64338 19.7613 2.50057 19.4171 2.5 18.9997V15.5H8.5M20 20.5L8.5 15.5M8.5 15.5V16C8.5 16.4095 8.64423 16.7763 8.93445 17.0666C9.22462 17.3567 9.59133 17.5009 10.0008 17.5H10V17.0001L10.0012 17.5L8.5 15.5ZM9.5 6V6.5H10H14H14.5V6V4V3.5H14H10H9.5V4V6ZM21.5 8V12.5H15.5V12C15.5 11.5905 15.3557 11.2236 15.0649 10.9338C14.7751 10.645 14.4095 10.501 14.0012 10.5H14H10C9.59047 10.5 9.22362 10.6443 8.93383 10.9351C8.64505 11.2249 8.50096 11.5905 8.5 11.9988V12V12.5H2.5V8C2.5 7.58381 2.64246 7.24014 2.94125 6.94185C3.24045 6.64317 3.58455 6.50059 4.00024 6.5C4.00036 6.5 4.00049 6.5 4.00061 6.5L8 6.5H8.5V6V4C8.5 3.58381 8.64246 3.24014 8.94125 2.94185C9.24047 2.64315 9.5846 2.50057 10.0003 2.5H14C14.4162 2.5 14.7604 2.64248 15.0594 2.94155C15.3585 3.24061 15.5005 3.58424 15.5 3.99939V4V6V6.5H16H20C20.4162 6.5 20.7604 6.64248 21.0594 6.94155C21.3585 7.24061 21.5005 7.58424 21.5 7.99939V8ZM11.5 14.5V13.5H12.5V14.5H11.5Z" stroke="#B0B0B0"/>
</svg>
