<svg width="24" height="24" viewBox="0 0 24 24" fill="none" xmlns="http://www.w3.org/2000/svg">
<path d="M7.25 5V4.5V3C7.25 2.9337 7.22366 2.87011 7.17678 2.82322C7.12989 2.77634 7.0663 2.75 7 2.75C6.9337 2.75 6.87011 2.77634 6.82322 2.82322C6.77634 2.87011 6.75 2.9337 6.75 3V4.5V5H6.25H6C5.51435 5 5.20058 5.00106 4.96941 5.03216C4.75273 5.06131 4.68474 5.10836 4.64655 5.14655C4.60836 5.18474 4.56131 5.25273 4.53216 5.46941C4.51066 5.62921 4.50352 5.82849 4.50116 6.09672C4.51382 6.09494 4.52646 6.0932 4.53906 6.0915L7.25 5ZM7.25 5H7.75H8C8.48565 5 8.79942 5.00106 9.03059 5.03216C9.24727 5.06131 9.31526 5.10836 9.35345 5.14655C9.39138 5.18448 9.43831 5.25214 9.46728 5.46897C9.48865 5.6289 9.49563 5.82822 9.4979 6.09657C9.4848 6.09478 9.47172 6.09303 9.45866 6.09133M7.25 5L9.45866 6.09133M9.45866 6.09133C8.78048 5.99998 7.95937 5.99999 7.11533 6H7.089H6.91H6.88355C6.03913 5.99999 5.21656 5.99998 4.53911 6.09149L9.45866 6.09133Z" stroke="#B0B0B0"/>
<path d="M5.587 13.606L5.09149 13.5392C4.99998 14.2176 4.99999 15.0391 5 15.8837V15.91V21.25V21.75H5.5H7H7.5V21.25V16C7.5 15.0428 7.50106 14.3756 7.56879 13.8722C7.63456 13.3832 7.75486 13.1242 7.93955 12.9395C8.12424 12.7549 8.38323 12.6346 8.87216 12.5688C9.37558 12.5011 10.0429 12.5 11 12.5H13C13.9571 12.5 14.6244 12.5011 15.1278 12.5688C15.6168 12.6346 15.8758 12.7549 16.0604 12.9395C16.2451 13.1242 16.3654 13.3832 16.4312 13.8722C16.4989 14.3756 16.5 15.0428 16.5 16V21.25V21.75H17H18.5H19V21.25V15.911V15.885C19 15.0392 19 14.218 18.9096 13.539L18.9095 13.538C18.8061 12.7733 18.5551 11.898 17.8276 11.1714C17.102 10.4449 16.2268 10.1939 15.4608 10.0915C14.8857 10.0139 14.2077 10.0021 13.5 10.0003V7.77199C13.5 6.44465 13.5013 5.50582 13.6023 4.82092C13.7016 4.1472 13.8821 3.83627 14.1459 3.65286C14.4095 3.47057 14.7636 3.41072 15.4293 3.55437C16.106 3.70038 16.9856 4.0289 18.2284 4.49513L18.2288 4.49528C18.8671 4.73414 19.3074 4.89991 19.6352 5.06633C19.9518 5.22709 20.1192 5.36739 20.233 5.53168C20.3468 5.69597 20.4192 5.90204 20.4586 6.25509C20.4993 6.62056 20.5 7.09081 20.5 7.77199V21.25V21.75H21H22C22.0663 21.75 22.1299 21.7763 22.1768 21.8232C22.2237 21.8701 22.25 21.9337 22.25 22C22.25 22.0663 22.2237 22.1299 22.1768 22.1768C22.1299 22.2236 22.0663 22.25 22 22.25H2C1.9337 22.25 1.87011 22.2236 1.82322 22.1768C1.77634 22.1299 1.75 22.0663 1.75 22C1.75 21.9337 1.77634 21.8701 1.82322 21.8232C1.87011 21.7763 1.9337 21.75 2 21.75H3H3.5V21.25V12C3.5 11.0428 3.50106 10.3756 3.56879 9.87215C3.63456 9.38322 3.75486 9.12423 3.93955 8.93954C4.12424 8.75485 4.38323 8.63455 4.87216 8.56878C5.37558 8.50105 6.04285 8.49999 7 8.49999C7.95715 8.49999 8.62442 8.50105 9.12784 8.56878C9.61677 8.63455 9.87576 8.75485 10.0604 8.93954C10.2632 9.14229 10.3846 9.4306 10.4463 10.0005C9.75773 10.0027 9.09986 10.0157 8.53902 10.0904L8.538 10.0905C7.77334 10.1939 6.89802 10.4449 6.17145 11.1724C5.44473 11.8981 5.19376 12.7737 5.0914 13.5398L5.587 13.606ZM5.587 13.606C5.682 12.895 5.907 12.143 6.525 11.526L18.414 13.605C18.5 14.251 18.5 15.045 18.5 15.911V20.75V21.25H18H17.5H17V20.75V16C17 14.114 17 13.172 16.414 12.586C15.828 12 14.886 12 13 12H11C9.114 12 8.172 12 7.586 12.586C7 13.172 7 14.114 7 16V20.75V21.25H6.5H6H5.5V20.75V15.91C5.5 15.045 5.5 14.251 5.587 13.606ZM9.11612 14.1161C8.8817 14.3505 8.75 14.6685 8.75 15C8.75 15.3315 8.8817 15.6495 9.11612 15.8839C9.35054 16.1183 9.66848 16.25 10 16.25H14C14.3315 16.25 14.6495 16.1183 14.8839 15.8839C15.1183 15.6495 15.25 15.3315 15.25 15C15.25 14.6685 15.1183 14.3505 14.8839 14.1161C14.6495 13.8817 14.3315 13.75 14 13.75H10C9.66848 13.75 9.35054 13.8817 9.11612 14.1161ZM9.11612 17.1161C8.8817 17.3505 8.75 17.6685 8.75 18C8.75 18.3315 8.8817 18.6495 9.11612 18.8839C9.35054 19.1183 9.66848 19.25 10 19.25H14C14.3315 19.25 14.6495 19.1183 14.8839 18.8839C15.1183 18.6495 15.25 18.3315 15.25 18C15.25 17.6685 15.1183 17.3505 14.8839 17.1161C14.6495 16.8817 14.3315 16.75 14 16.75H10C9.66848 16.75 9.35054 16.8817 9.11612 17.1161Z" stroke="#B0B0B0"/>
</svg>
