<svg width="24" height="24" viewBox="0 0 24 24" fill="none" xmlns="http://www.w3.org/2000/svg">
<path d="M19.9166 5.33398H18.1111V6.4451H19.7778V18.6673H4.2222V6.4451H5.88887V5.33398H4.08331C3.95344 5.33615 3.82527 5.36389 3.70613 5.4156C3.58698 5.46731 3.47918 5.54199 3.3889 5.63537C3.29862 5.72875 3.22762 5.839 3.17995 5.95982C3.13228 6.08064 3.10888 6.20967 3.11109 6.33954V18.7729C3.10888 18.9027 3.13228 19.0318 3.17995 19.1526C3.22762 19.2734 3.29862 19.3837 3.3889 19.477C3.47918 19.5704 3.58698 19.6451 3.70613 19.6968C3.82527 19.7485 3.95344 19.7763 4.08331 19.7784H19.9166C20.0465 19.7763 20.1747 19.7485 20.2938 19.6968C20.413 19.6451 20.5208 19.5704 20.6111 19.477C20.7013 19.3837 20.7723 19.2734 20.82 19.1526C20.8677 19.0318 20.8911 18.9027 20.8889 18.7729V6.33954C20.8911 6.20967 20.8677 6.08064 20.82 5.95982C20.7723 5.839 20.7013 5.72875 20.6111 5.63537C20.5208 5.54199 20.413 5.46731 20.2938 5.4156C20.1747 5.36389 20.0465 5.33615 19.9166 5.33398Z" fill="#262626"/>
<path d="M6.44447 9.77734H7.55558V10.8885H6.44447V9.77734Z" fill="#262626"/>
<path d="M9.77782 9.77734H10.8889V10.8885H9.77782V9.77734Z" fill="#262626"/>
<path d="M13.1111 9.77734H14.2223V10.8885H13.1111V9.77734Z" fill="#262626"/>
<path d="M16.4445 9.77734H17.5556V10.8885H16.4445V9.77734Z" fill="#262626"/>
<path d="M6.44447 12.5547H7.55558V13.6658H6.44447V12.5547Z" fill="#262626"/>
<path d="M9.77782 12.5547H10.8889V13.6658H9.77782V12.5547Z" fill="#262626"/>
<path d="M13.1111 12.5547H14.2223V13.6658H13.1111V12.5547Z" fill="#262626"/>
<path d="M16.4445 12.5547H17.5556V13.6658H16.4445V12.5547Z" fill="#262626"/>
<path d="M6.44447 15.334H7.55558V16.4451H6.44447V15.334Z" fill="#262626"/>
<path d="M9.77782 15.334H10.8889V16.4451H9.77782V15.334Z" fill="#262626"/>
<path d="M13.1111 15.334H14.2223V16.4451H13.1111V15.334Z" fill="#262626"/>
<path d="M16.4445 15.334H17.5556V16.4451H16.4445V15.334Z" fill="#262626"/>
<path d="M7.55556 7.55577C7.7029 7.55577 7.84421 7.49724 7.94839 7.39305C8.05258 7.28887 8.11111 7.14756 8.11111 7.00022V3.66688C8.11111 3.51954 8.05258 3.37823 7.94839 3.27405C7.84421 3.16986 7.7029 3.11133 7.55556 3.11133C7.40821 3.11133 7.26691 3.16986 7.16272 3.27405C7.05853 3.37823 7 3.51954 7 3.66688V7.00022C7 7.14756 7.05853 7.28887 7.16272 7.39305C7.26691 7.49724 7.40821 7.55577 7.55556 7.55577Z" fill="#262626"/>
<path d="M16.4444 7.55577C16.5918 7.55577 16.7331 7.49724 16.8372 7.39305C16.9414 7.28887 17 7.14756 17 7.00022V3.66688C17 3.51954 16.9414 3.37823 16.8372 3.27405C16.7331 3.16986 16.5918 3.11133 16.4444 3.11133C16.2971 3.11133 16.1558 3.16986 16.0516 3.27405C15.9474 3.37823 15.8889 3.51954 15.8889 3.66688V7.00022C15.8889 7.14756 15.9474 7.28887 16.0516 7.39305C16.1558 7.49724 16.2971 7.55577 16.4444 7.55577Z" fill="#262626"/>
<path d="M9.22218 5.33398H14.7777V6.4451H9.22218V5.33398Z" fill="#262626"/>
</svg>
