<svg width="24" height="24" viewBox="0 0 24 24" fill="none" xmlns="http://www.w3.org/2000/svg">
<path d="M7.71453 9.14286V8.64286C7.43839 8.64286 7.21453 8.86671 7.21453 9.14286H7.71453ZM7.71453 10.5714L8.06808 10.925L8.21453 10.7785V10.5714H7.71453ZM5.27581 10.9898L4.92225 11.3434L4.92225 11.3434L5.27581 10.9898ZM10.5717 19.8571H11.0717V19.65L10.9252 19.5036L10.5717 19.8571ZM9.1431 18.4286H8.6431V18.6357L8.78955 18.7821L9.1431 18.4286ZM9.1431 16.2857H9.6431V16.0786L9.49665 15.9322L9.1431 16.2857ZM7.71453 14.8571H7.21453V15.0642L7.36098 15.2107L7.71453 14.8571ZM7.71453 13.4286V12.9286C7.43839 12.9286 7.21453 13.1524 7.21453 13.4286H7.71453ZM14.3574 2V4.85714H15.3574V2H14.3574ZM13.4288 5.78571H12.0002V6.78571H13.4288V5.78571ZM9.1431 8.64286H7.71453V9.64286H9.1431V8.64286ZM7.21453 9.14286V10.5714H8.21453V9.14286H7.21453ZM7.36098 10.2179L6.94256 10.6363L7.64966 11.3434L8.06808 10.925L7.36098 10.2179ZM5.62936 10.6363L3.06808 8.07502L2.36098 8.78212L4.92225 11.3434L5.62936 10.6363ZM10.0717 7.71429C10.0717 8.22712 9.65594 8.64286 9.1431 8.64286V9.64286C10.2082 9.64286 11.0717 8.77941 11.0717 7.71429H10.0717ZM12.0002 5.78571C10.9351 5.78571 10.0717 6.64917 10.0717 7.71429H11.0717C11.0717 7.20145 11.4874 6.78571 12.0002 6.78571V5.78571ZM6.94256 10.6363C6.57993 10.9989 5.99199 10.9989 5.62936 10.6363L4.92225 11.3434C5.67541 12.0966 6.89651 12.0966 7.64966 11.3434L6.94256 10.6363ZM14.3574 4.85714C14.3574 5.36998 13.9417 5.78571 13.4288 5.78571V6.78571C14.4939 6.78571 15.3574 5.92226 15.3574 4.85714H14.3574ZM11.0717 22V19.8571H10.0717V22H11.0717ZM10.9252 19.5036L9.49665 18.075L8.78955 18.7821L10.2181 20.2107L10.9252 19.5036ZM9.6431 18.4286V16.2857H8.6431V18.4286H9.6431ZM9.49665 15.9322L8.06808 14.5036L7.36098 15.2107L8.78955 16.6393L9.49665 15.9322ZM8.21453 14.8571V13.4286H7.21453V14.8571H8.21453ZM7.71453 13.9286H13.4288V12.9286H7.71453V13.9286ZM14.3574 14.8571V15.8095H15.3574V14.8571H14.3574ZM16.7621 18.2143H20.5717V17.2143H16.7621V18.2143ZM15.786 17.2381C15.786 17.7772 16.223 18.2143 16.7621 18.2143V17.2143C16.7753 17.2143 16.786 17.2249 16.786 17.2381H15.786ZM15.3336 16.7857C15.5834 16.7857 15.786 16.9883 15.786 17.2381H16.786C16.786 16.436 16.1357 15.7857 15.3336 15.7857V16.7857ZM14.3574 15.8095C14.3574 16.3487 14.7944 16.7857 15.3336 16.7857V15.7857C15.3467 15.7857 15.3574 15.7964 15.3574 15.8095H14.3574ZM13.4288 13.9286C13.9417 13.9286 14.3574 14.3443 14.3574 14.8571H15.3574C15.3574 13.792 14.4939 12.9286 13.4288 12.9286V13.9286ZM12.0002 21.5C6.75354 21.5 2.50024 17.2467 2.50024 12H1.50024C1.50024 17.799 6.20125 22.5 12.0002 22.5V21.5ZM21.5002 12C21.5002 17.2467 17.247 21.5 12.0002 21.5V22.5C17.7992 22.5 22.5002 17.799 22.5002 12H21.5002ZM12.0002 2.5C17.247 2.5 21.5002 6.7533 21.5002 12H22.5002C22.5002 6.20101 17.7992 1.5 12.0002 1.5V2.5ZM12.0002 1.5C6.20125 1.5 1.50024 6.20101 1.50024 12H2.50024C2.50024 6.7533 6.75354 2.5 12.0002 2.5V1.5Z" fill="#B0B0B0"/>
</svg>
