<svg width="24" height="24" viewBox="0 0 24 24" fill="none" xmlns="http://www.w3.org/2000/svg">
<path d="M12.2311 2C14.4142 2 16.5078 2.86721 18.0514 4.41084C19.5951 5.95448 20.4623 8.0481 20.4623 10.2311C20.4623 13.7093 18.0182 17.4999 13.1935 21.6433C12.9253 21.8737 12.5832 22.0003 12.2296 22C11.8759 21.9997 11.5341 21.8725 11.2662 21.6416L10.9471 21.3647C6.33595 17.3293 4 13.6316 4 10.2311C4 8.0481 4.86721 5.95448 6.41084 4.41084C7.95448 2.86721 10.0481 2 12.2311 2ZM12.2311 3.26633C10.3839 3.26633 8.61242 4.00012 7.30627 5.30627C6.00012 6.61243 5.26633 8.38395 5.26633 10.2311C5.26633 13.1876 7.4174 16.594 11.7786 20.4099L12.0935 20.6826C12.1318 20.7155 12.1806 20.7336 12.2311 20.7336C12.2816 20.7336 12.3305 20.7155 12.3687 20.6826C16.941 16.7553 19.1959 13.2577 19.1959 10.2311C19.1959 9.3165 19.0158 8.41083 18.6658 7.56582C18.3158 6.72081 17.8027 5.95301 17.156 5.30627C16.5092 4.65953 15.7415 4.14651 14.8964 3.79649C14.0514 3.44648 13.1458 3.26633 12.2311 3.26633ZM12.2311 7.06531C13.0708 7.06531 13.876 7.39885 14.4697 7.99256C15.0634 8.58626 15.3969 9.3915 15.3969 10.2311C15.3969 11.0708 15.0634 11.876 14.4697 12.4697C13.876 13.0634 13.0708 13.397 12.2311 13.397C11.3915 13.397 10.5863 13.0634 9.99256 12.4697C9.39885 11.876 9.06531 11.0708 9.06531 10.2311C9.06531 9.3915 9.39885 8.58626 9.99256 7.99256C10.5863 7.39885 11.3915 7.06531 12.2311 7.06531ZM12.2311 8.33164C11.7274 8.33164 11.2442 8.53176 10.888 8.88799C10.5318 9.24421 10.3316 9.72735 10.3316 10.2311C10.3316 10.7349 10.5318 11.2181 10.888 11.5743C11.2442 11.9305 11.7274 12.1306 12.2311 12.1306C12.7349 12.1306 13.218 11.9305 13.5743 11.5743C13.9305 11.2181 14.1306 10.7349 14.1306 10.2311C14.1306 9.72735 13.9305 9.24421 13.5743 8.88799C13.218 8.53176 12.7349 8.33164 12.2311 8.33164Z" fill="#B0B0B0"/>
</svg>
